<svg xmlns="http://www.w3.org/2000/svg" xmlns:xlink="http://www.w3.org/1999/xlink" version="1.1" x="0px" y="0px" viewBox="0 0 50 62.5" enable-background="new 0 0 50 50" xml:space="preserve"><g><path fill-rule="evenodd" clip-rule="evenodd" d="M1.766,21.925c0-3.221,1.541-6.143,4.031-8.264c5.461-4.65,14.379-4.65,19.84,0   c2.491,2.121,4.031,5.043,4.031,8.264c0,7.293-7.254,11.749-13.95,11.749c-0.75,0-1.449-0.054-2.191-0.141L5.541,38.03l1.718-6.746   C4.02,28.999,1.766,26.039,1.766,21.925 M33.486,18.168c3.849-1.463,8.576-0.861,11.743,1.836c2.931,2.496,3.929,6.408,2.044,9.824   c-0.839,1.521-1.882,2.41-3.263,3.385l1.227,4.817l-5.733-3.228c-1.882,0.181-3.367,0.165-5.262-0.406   c-1.599-0.483-3.092-1.303-4.299-2.461c-0.714-0.686-1.975,0.547-1.223,1.267c1.368,1.309,3.041,2.255,4.839,2.826   c1.887,0.6,3.637,0.732,5.575,0.588l7.036,3.962l1.796,1.01l-0.509-1.996l-1.441-5.659c1.16-0.913,2.117-2.018,2.802-3.257   c2.294-4.156,1.128-8.967-2.45-12.012c-3.661-3.118-9.046-3.843-13.499-2.147C31.934,16.874,32.522,18.535,33.486,18.168z    M40.339,20.147c-1.348-1.143-3.684-1.017-4.978,0.13c-0.805,0.713-1.147,1.658-1.147,2.718c0,0.536,0.365,0.907,0.909,0.867   c0.455,0.001,0.808-0.452,0.808-0.884c0-0.452,0.09-0.901,0.339-1.284c0.582-0.897,2.291-0.968,2.993-0.237   c0.51,0.529,0.474,1.451,0.14,2.062c-0.262,0.475-0.716,0.897-1.131,1.242c-1.144,0.947-1.465,1.998-1.465,3.446   c0,0.496,0.361,0.855,0.857,0.855c0.479,0,0.858-0.374,0.858-0.855c0-1.269,0.162-1.731,1.139-2.546   c0.501-0.418,0.985-0.91,1.304-1.484C41.668,22.91,41.473,21.11,40.339,20.147z M38.532,30.83   c-0.435-0.501-1.319-0.514-1.739,0.012c-0.365,0.453-0.366,1.163,0.015,1.606c0.411,0.512,1.3,0.484,1.725-0.008   C38.922,31.991,38.922,31.28,38.532,30.83z M14.216,21.926c0,0.828,0.671,1.499,1.5,1.499c0.829,0,1.499-0.671,1.499-1.499   c0-0.829-0.671-1.5-1.499-1.5C14.887,20.425,14.216,21.097,14.216,21.926z M20.91,21.925c0,0.828,0.672,1.498,1.5,1.498   c0.828,0,1.499-0.671,1.499-1.498c0-0.828-0.672-1.499-1.499-1.499C21.582,20.426,20.91,21.097,20.91,21.925z M9.021,23.425   c0.829,0,1.5-0.672,1.5-1.499c0-0.829-0.671-1.5-1.5-1.5c-0.827,0-1.5,0.672-1.5,1.5C7.522,22.753,8.194,23.425,9.021,23.425z    M4.659,12.322C1.781,14.773,0,18.168,0,21.925c0,4.058,2.079,7.649,5.253,10.086l-2.442,9.58l11.085-6.242   c0.601,0.061,1.219,0.091,1.822,0.091c7.675,0,15.716-5.237,15.716-13.515c0-3.757-1.78-7.152-4.658-9.603   C20.651,7.106,10.783,7.105,4.659,12.322z"/></g><text x="0" y="65" fill="#000000" font-size="5px" font-weight="bold" font-family="'Helvetica Neue', Helvetica, Arial-Unicode, Arial, Sans-serif">Created by Georgiana Ionescu</text><text x="0" y="70" fill="#000000" font-size="5px" font-weight="bold" font-family="'Helvetica Neue', Helvetica, Arial-Unicode, Arial, Sans-serif">from the Noun Project</text></svg>