<svg xmlns="http://www.w3.org/2000/svg" xmlns:xlink="http://www.w3.org/1999/xlink" xml:space="preserve" version="1.1" style="shape-rendering:geometricPrecision;text-rendering:geometricPrecision;image-rendering:optimizeQuality;" viewBox="0 0 846.66 1058.325" x="0px" y="0px" fill-rule="evenodd" clip-rule="evenodd"><defs><style type="text/css">
   
    .fil0 {fill:black}
   
  </style></defs><g><path class="fil0" d="M343.4 56.99c-108.26,165.2 108.25,165.2 0,0zm79.93 0c-108.26,165.2 108.25,165.2 0,0zm79.93 0c-108.26,165.2 108.26,165.2 0,0zm-204.1 489.41l288.45 0 0 -103.29 -288.45 103.29zm226.47 -339.45l0 74 37.4 0 0 115.41 69.32 0 0 150.04 72 0 0 198.52 82.1 0 0 44.74c-242.08,0 -484.16,0 -726.24,0l0 -44.74 82.1 0 0 -198.52 72 0 0 -150.04 69.32 0 0 -115.41 37.39 0 0 -74 44.74 0 0 74 35.19 0 0 -74 44.75 0 0 74 35.19 0 0 -74 44.74 0zm90.65 537.97l-429.23 -146.16 0 146.16 429.23 0zm-126.23 -348.56l-161.68 -70.67 0 70.67 161.68 0z"/></g><text x="0" y="861.66" fill="#000000" font-size="5px" font-weight="bold" font-family="'Helvetica Neue', Helvetica, Arial-Unicode, Arial, Sans-serif">Created by Fahmi</text><text x="0" y="866.66" fill="#000000" font-size="5px" font-weight="bold" font-family="'Helvetica Neue', Helvetica, Arial-Unicode, Arial, Sans-serif">from the Noun Project</text></svg>