<svg xmlns="http://www.w3.org/2000/svg" xmlns:xlink="http://www.w3.org/1999/xlink" viewBox="0 0 18 21.25" version="1.1" x="0px" y="0px"><title>home</title><desc>Created with Sketch.</desc><g stroke="none" stroke-width="1" fill="none" fill-rule="evenodd"><path d="M16.9989504,8.00025 C16.7899504,8.00025 16.5799504,7.93525 16.3999504,7.80025 L8.99995043,2.25025 L1.59995043,7.80025 C1.15795043,8.13225 0.530950434,8.04325 0.199950434,7.60025 C-0.131049566,7.15825 -0.0420495663,6.53125 0.399950434,6.20025 L8.39995043,0.20025 C8.75495043,-0.06675 9.24495043,-0.06675 9.59995043,0.20025 L17.5999504,6.20025 C18.0419504,6.53125 18.1309504,7.15825 17.7999504,7.60025 C17.6029504,7.86225 17.3029504,8.00025 16.9989504,8.00025 L16.9989504,8.00025 Z M8.99995043,5.00025 L15.9999504,10.00025 L15.9999504,15.00025 C15.9999504,16.10525 15.1049504,17.00025 13.9999504,17.00025 L10.9999504,17.00025 L10.9999504,12.00025 L6.99995043,12.00025 L6.99995043,17.00025 L4.01295043,17.00025 C2.90095043,17.00025 1.99995043,16.09925 1.99995043,14.98725 L1.99995043,10.00025 L8.99995043,5.00025 Z" fill="#000000"/></g><text x="0" y="32" fill="#000000" font-size="5px" font-weight="bold" font-family="'Helvetica Neue', Helvetica, Arial-Unicode, Arial, Sans-serif">Created by Kevin White</text><text x="0" y="37" fill="#000000" font-size="5px" font-weight="bold" font-family="'Helvetica Neue', Helvetica, Arial-Unicode, Arial, Sans-serif">from the Noun Project</text></svg>