<svg xmlns="http://www.w3.org/2000/svg" xmlns:xlink="http://www.w3.org/1999/xlink" xml:space="preserve" version="1.1" style="shape-rendering:geometricPrecision;text-rendering:geometricPrecision;image-rendering:optimizeQuality;" viewBox="0 0 846.66 1058.325" x="0px" y="0px" fill-rule="evenodd" clip-rule="evenodd"><defs><style type="text/css">
   
    .fil0 {fill:black;fill-rule:nonzero}
   
  </style></defs><g><path class="fil0" d="M241.24 372.03l85.85 0c-0.43,-2.1 -0.67,-4.34 -0.67,-6.74l0 -115.58c0,-37.67 56.95,-37.67 56.95,0l0 115.58c0,2.4 -0.25,4.64 -0.67,6.74l81.27 0c-0.43,-2.1 -0.67,-4.34 -0.67,-6.74l0 -115.58c0,-37.67 56.95,-37.67 56.95,0l0 115.58c0,2.4 -0.25,4.64 -0.67,6.74l85.85 0c44.3,0 80.62,36.32 80.62,80.62l0 255.23 103.59 0 0 43.47 -103.59 0c-175.14,0 -350.29,0 -525.43,0l-103.59 0 0 -43.47 103.59 0 0 -255.23c0,-44.3 36.32,-80.62 80.62,-80.62zm286.29 -193.65c-4.81,17.67 -20.31,26.51 -35.77,26.51 -15.18,0.1 -30.58,-8.23 -35.54,-25.49 -8.67,-30.08 17.15,-62.5 35.54,-84.09 17.97,21.1 43.86,53.38 35.77,83.07zm-15.75 -22.14l-38.13 23.58c3.98,6.18 11.04,9.27 18.11,9.27 8.95,0 17.91,-4.95 20.59,-14.84 1.43,-4.94 1.34,-10.9 -0.57,-18.01zm-121.13 22.14c-4.81,17.67 -20.31,26.51 -35.77,26.51 -15.18,0.1 -30.58,-8.23 -35.54,-25.49 -8.67,-30.08 17.15,-62.5 35.54,-84.09 17.97,21.1 43.86,53.38 35.77,83.07zm-15.75 -22.14l-38.13 23.58c3.98,6.18 11.04,9.27 18.11,9.27 8.95,0 17.91,-4.95 20.59,-14.84 1.43,-4.94 1.34,-10.9 -0.57,-18.01zm230.53 259.26c-531.55,0 -17.1,138.04 37.15,292.38l0 -255.23c0,-20.48 -16.67,-37.15 -37.15,-37.15z"/></g><text x="0" y="861.66" fill="#000000" font-size="5px" font-weight="bold" font-family="'Helvetica Neue', Helvetica, Arial-Unicode, Arial, Sans-serif">Created by Fahmi</text><text x="0" y="866.66" fill="#000000" font-size="5px" font-weight="bold" font-family="'Helvetica Neue', Helvetica, Arial-Unicode, Arial, Sans-serif">from the Noun Project</text></svg>