<svg xmlns="http://www.w3.org/2000/svg" xmlns:xlink="http://www.w3.org/1999/xlink" version="1.1" x="0px" y="0px" viewBox="0 0 1024 1280" style="enable-background:new 0 0 1024 1024;" xml:space="preserve"><g><g><g><path d="M445.7,412.9c0-5.1,0.4-10.2,1-15.2c-0.6,4.4-1.2,8.9-1.8,13.3c1.4-10.2,4.1-20.2,8-29.7     c-1.7,4-3.4,8-5,11.9c4-9.3,9-18,15.2-26c-2.6,3.4-5.2,6.7-7.8,10.1c6.2-7.9,13.2-15,21.2-21.2c-3.4,2.6-6.7,5.2-10.1,7.8     c8-6.1,16.7-11.2,26-15.2c-4,1.7-8,3.4-11.9,5c9.6-3.9,19.5-6.6,29.7-8c-4.4,0.6-8.9,1.2-13.3,1.8c10.1-1.3,20.3-1.3,30.4,0     c-4.4-0.6-8.9-1.2-13.3-1.8c10.2,1.4,20.2,4.1,29.7,8c-4-1.7-8-3.4-11.9-5c9.3,4,18,9,26,15.2c-3.4-2.6-6.7-5.2-10.1-7.8     c7.9,6.2,15,13.2,21.2,21.2c-2.6-3.4-5.2-6.7-7.8-10.1c6.1,8,11.2,16.7,15.2,26c-1.7-4-3.4-8-5-11.9c3.9,9.6,6.6,19.5,8,29.7     c-0.6-4.4-1.2-8.9-1.8-13.3c1.3,10.2,1.3,20.4,0,30.6c0.6-4.4,1.2-8.9,1.8-13.3c-1.4,10.4-4.2,20.5-8.2,30.1c1.7-4,3.4-8,5-11.9     c-3.9,9-8.8,17.3-14.7,25.1c2.6-3.4,5.2-6.7,7.8-10.1c-6.2,8-13.4,15.2-21.4,21.5c3.4-2.6,6.7-5.2,10.1-7.8     c-4.7,3.6-9.7,6.6-14.8,9.7c-8.2,5-15.8,11-23.2,17c-12.1,9.8-22.1,22.3-30.8,35.1c-17.8,26.2-26.7,59.1-26.9,90.6     c-0.1,12.8,5.6,26.3,14.6,35.4c8.7,8.7,22.9,15.2,35.4,14.6c27.2-1.2,49.8-22,50-50c0-5.1,0.4-10.3,1-15.4     c-0.6,4.4-1.2,8.9-1.8,13.3c1.4-10.4,4.2-20.5,8.2-30.1c-1.7,4-3.4,8-5,11.9c3.9-9,8.8-17.3,14.7-25.1c-2.6,3.4-5.2,6.7-7.8,10.1     c6.2-8,13.4-15.2,21.4-21.5c-3.4,2.6-6.7,5.2-10.1,7.8c7.4-5.7,15.8-9.9,23.3-15.4c10.3-7.5,20.4-15.3,28.8-24.9     c17.3-19.6,30.4-42,37.5-67.3c7.2-25.7,7.1-51.4,2.7-77.4c-1.4-8.4-3.8-16.6-6.9-24.5c-4.5-11.2-9.1-22.2-15.8-32.3     c-13.5-20.5-30-36.9-50.4-50.6c-16.5-11.1-36.3-19.3-55.9-22.8c-25.4-4.5-49.9-4.7-75.1,1.5c-19.5,4.8-39,13.7-55,25.8     c-20.8,15.7-39.1,34.3-50.9,57.9c-12.2,24.3-19,50.1-19.1,77.4c-0.1,12.8,5.6,26.3,14.6,35.4c8.7,8.7,22.9,15.2,35.4,14.6     C422.9,461.7,445.5,441,445.7,412.9L445.7,412.9z"/></g></g><g><g><path d="M512,801c12.8,0,26.3-5.6,35.4-14.6c8.7-8.7,15.2-22.9,14.6-35.4c-0.6-12.9-4.8-26.3-14.6-35.4     c-9.8-9-21.8-14.6-35.4-14.6c-12.8,0-26.3,5.6-35.4,14.6c-8.7,8.7-15.2,22.9-14.6,35.4c0.6,12.9,4.8,26.3,14.6,35.4     C486.4,795.3,498.5,801,512,801L512,801z"/></g></g><g><g><path d="M753.8,270.2c12.1,12.1,23.3,24.9,33.8,38.4c-2.6-3.4-5.2-6.7-7.8-10.1c20.4,26.7,37.4,55.8,50.5,86.7     c-1.7-4-3.4-8-5-11.9c13.4,32,22.5,65.6,27.1,99.9c-0.6-4.4-1.2-8.9-1.8-13.3c4.5,34.6,4.5,69.6,0,104.2     c0.6-4.4,1.2-8.9,1.8-13.3c-4.6,34.3-13.7,67.9-27.1,99.9c1.7-4,3.4-8,5-11.9c-13.1,30.9-30,60.1-50.5,86.7     c2.6-3.4,5.2-6.7,7.8-10.1c-20.9,27-45.2,51.3-72.2,72.2c3.4-2.6,6.7-5.2,10.1-7.8c-26.7,20.4-55.8,37.4-86.7,50.5     c4-1.7,8-3.4,11.9-5c-32,13.4-65.6,22.5-99.9,27.1c4.4-0.6,8.9-1.2,13.3-1.8c-34.6,4.5-69.6,4.5-104.2,0     c4.4,0.6,8.9,1.2,13.3,1.8c-34.3-4.6-67.9-13.7-99.9-27.1c4,1.7,8,3.4,11.9,5c-30.9-13.1-60.1-30-86.7-50.5     c3.4,2.6,6.7,5.2,10.1,7.8c-27-20.9-51.3-45.2-72.2-72.2c2.6,3.4,5.2,6.7,7.8,10.1c-20.4-26.7-37.4-55.8-50.5-86.7     c1.7,4,3.4,8,5,11.9c-13.4-32-22.5-65.6-27.1-99.9c0.6,4.4,1.2,8.9,1.8,13.3c-4.5-34.6-4.5-69.6,0-104.2     c-0.6,4.4-1.2,8.9-1.8,13.3c4.6-34.3,13.7-67.9,27.1-99.9c-1.7,4-3.4,8-5,11.9c13.1-30.9,30-60.1,50.5-86.7     c-2.6,3.4-5.2,6.7-7.8,10.1c20.9-27,45.2-51.3,72.2-72.2c-3.4,2.6-6.7,5.2-10.1,7.8c26.7-20.4,55.8-37.4,86.7-50.5     c-4,1.7-8,3.4-11.9,5c32-13.4,65.6-22.5,99.9-27.1c-4.4,0.6-8.9,1.2-13.3,1.8c34.6-4.5,69.6-4.5,104.2,0     c-4.4-0.6-8.9-1.2-13.3-1.8c34.3,4.6,67.9,13.7,99.9,27.1c-4-1.7-8-3.4-11.9-5c30.9,13.1,60.1,30,86.7,50.5     c-3.4-2.6-6.7-5.2-10.1-7.8C728.9,246.8,741.7,258.1,753.8,270.2c9.1,9.1,22.5,14.6,35.4,14.6c12.3,0,26.9-5.4,35.4-14.6     c8.7-9.5,15.2-22,14.6-35.4c-0.6-13.2-5.1-25.8-14.6-35.4C761.2,136.4,678,91.7,589.6,77.1c-43.1-7.1-86.3-9.3-129.7-3.6     c-24.1,3.1-47.9,7.2-71.3,14c-22.9,6.7-45.1,15.6-66.7,25.6c-41,19-78.8,45.5-111.9,76.2c-33,30.6-61.7,67.1-83.6,106.4     c-42.8,76.6-63.2,167.2-54.6,254.8c4.5,46.1,15,90.1,33,132.9c18.4,43.5,42.9,82.7,73.6,118.6C236.8,870,318.2,919.7,405.3,941     c84.9,20.7,177.1,16.9,259.1-14.2c22.4-8.5,44.4-18.2,65.2-30c21.4-12.1,41.2-26.4,60.5-41.6c35.9-28.4,66.6-63.3,91.9-101.4     c48.7-73.2,73.9-163,71.9-250.8c-2-88.1-30.2-176.9-82.6-248.2c-14.4-19.5-29.7-38.3-46.8-55.5c-9-9.1-22.6-14.6-35.4-14.6     c-12.3,0-26.9,5.4-35.4,14.6c-8.7,9.5-15.2,22-14.6,35.4C739.8,248.1,744.3,260.6,753.8,270.2z"/></g></g></g><text x="0" y="1039" fill="#000000" font-size="5px" font-weight="bold" font-family="'Helvetica Neue', Helvetica, Arial-Unicode, Arial, Sans-serif">Created by shashank singh</text><text x="0" y="1044" fill="#000000" font-size="5px" font-weight="bold" font-family="'Helvetica Neue', Helvetica, Arial-Unicode, Arial, Sans-serif">from the Noun Project</text></svg>