<svg xmlns="http://www.w3.org/2000/svg" data-name="Layer 1" viewBox="0 0 100 125" x="0px" y="0px"><defs><style>.cls-1{fill:none;}</style></defs><title>mini chat</title><path class="cls-1" d="M26.18,13.12C14.26,20.79,7.53,32,6.19,46.44a42.77,42.77,0,0,0,5.26,24.77v0.05a8.57,8.57,0,0,1,1,4.95v0.08c-0.28,2.22-.61,4.44-0.92,6.58q-0.23,1.57-.45,3.13l-0.18,1.32-0.28,2c4.37-.6,8.54-1.17,12.74-1.73a8.41,8.41,0,0,1,1.12-.07,9.28,9.28,0,0,1,4.32,1.09A44.25,44.25,0,0,0,49.73,94a45.67,45.67,0,0,0,9.75-1.08,44,44,0,0,0,29-21.65,43.3,43.3,0,0,0,2.87-36A43.71,43.71,0,0,0,50.11,6V0h0V6A44.18,44.18,0,0,0,26.18,13.12ZM70.33,44.25A5.75,5.75,0,1,1,64.56,50,5.73,5.73,0,0,1,70.33,44.25ZM29.72,55.74a5.75,5.75,0,1,1,5.71-5.67A5.73,5.73,0,0,1,29.72,55.74Zm26-5.72A5.75,5.75,0,1,1,50,44.25,5.8,5.8,0,0,1,55.74,50Z"/><path d="M6.54,75.53C6.13,78.75,5.63,82,5.18,85.17c-0.51,3.65-1,7.28-1.53,11.11l1-.07c6.51-.91,13-1.81,19.57-2.68l0.33,0a3.25,3.25,0,0,1,1.48.37A50,50,0,0,0,49.73,100a51.44,51.44,0,0,0,11-1.22A50,50,0,0,0,50.11,0V6A43.71,43.71,0,0,1,91.39,35.29a43.3,43.3,0,0,1-2.87,36,44,44,0,0,1-29,21.65A45.67,45.67,0,0,1,49.73,94a44.25,44.25,0,0,1-20.89-5.4,9.28,9.28,0,0,0-4.32-1.09,8.41,8.41,0,0,0-1.12.07c-4.19.56-8.37,1.13-12.74,1.73l0.28-2L11.12,86q0.22-1.57.45-3.13c0.31-2.15.63-4.37,0.92-6.58V76.21a8.57,8.57,0,0,0-1-4.95V71.21A42.77,42.77,0,0,1,6.19,46.44c1.34-14.44,8.07-25.65,20-33.32A44.18,44.18,0,0,1,50.11,6V0h0A50,50,0,0,0,22.93,8.08C9.27,16.87,1.72,29.7.21,45.88a48.57,48.57,0,0,0,6,28.19A2.7,2.7,0,0,1,6.54,75.53Z"/><path d="M44.25,50A5.75,5.75,0,1,0,50,44.25,5.81,5.81,0,0,0,44.25,50Z"/><path d="M29.77,44.25a5.75,5.75,0,1,0,5.67,5.82A5.73,5.73,0,0,0,29.77,44.25Z"/><path d="M70.28,55.75A5.75,5.75,0,1,0,64.56,50,5.75,5.75,0,0,0,70.28,55.75Z"/><text x="0" y="115" fill="#000000" font-size="5px" font-weight="bold" font-family="'Helvetica Neue', Helvetica, Arial-Unicode, Arial, Sans-serif">Created by i cons</text><text x="0" y="120" fill="#000000" font-size="5px" font-weight="bold" font-family="'Helvetica Neue', Helvetica, Arial-Unicode, Arial, Sans-serif">from the Noun Project</text></svg>