<svg xmlns:dc="http://purl.org/dc/elements/1.1/" xmlns:cc="http://creativecommons.org/ns#" xmlns:rdf="http://www.w3.org/1999/02/22-rdf-syntax-ns#" xmlns:svg="http://www.w3.org/2000/svg" xmlns="http://www.w3.org/2000/svg" xmlns:sodipodi="http://sodipodi.sourceforge.net/DTD/sodipodi-0.dtd" xmlns:inkscape="http://www.inkscape.org/namespaces/inkscape" version="1.1" x="0px" y="0px" viewBox="0 0 100 125"><g transform="translate(0,-952.36218)"><path style="text-indent:0;text-transform:none;direction:ltr;block-progression:tb;baseline-shift:baseline;color:#000000;enable-background:accumulate;" d="m 45.911345,958.36362 a 2.000005,2.000005 0 0 0 -1.5,3.03125 c 0.724,1.21766 0.5503,2.1169 -0.1563,3.6875 -0.7064,1.5706 -2.0409,3.45369 -3.125,5.5625 -1.0841,2.10881 -1.9353,4.69362 -1.0624,7.4375 0.8701,2.73563 3.2475,5.16341 7.5312,7.53125 l 0,2.56247 -5.75,0 c -2.1387,0 -3.8438,1.813 -3.8438,3.9063 l 0,50.37501 c 0,2.0933 1.7052,3.9063 3.8438,3.9063 l 15.4688,0 c 2.1385,0 3.8437,-1.813 3.8437,-3.9063 l 0,-50.37501 c 0,-2.0933 -1.7052,-3.9063 -3.8437,-3.9063 l -5.7188,0 0,-2.74997 c 3.69,-0.79902 6.4165,-2.25742 8.1875,-4.28125 2.1884,-2.50088 2.6363,-5.79546 1.8437,-8.8125 -1.5851,-6.03408 -7.5092,-11.58471 -14.9374,-13.875 a 2.000005,2.000005 0 0 0 -0.5626,-0.0937 2.000005,2.000005 0 0 0 -0.2187,0 z m 2.8437,5.25 c 4.6348,2.38735 8.1483,6.38905 9.0313,9.75 0.5391,2.05251 0.2539,3.68756 -1.0313,5.15625 -0.939,1.07306 -2.5762,2.09793 -5.1562,2.78125 l 0,-5.5 a 2.000005,2.000005 0 0 0 -2.0312,-2.03125 2.000005,2.000005 0 0 0 -1.9688,2.03125 l 0,5.125 c -2.3732,-1.60072 -3.3739,-2.97846 -3.7188,-4.0625 -0.4285,-1.34756 -0.0722,-2.68519 0.8126,-4.40625 0.8848,-1.72107 2.2589,-3.58499 3.2187,-5.71875 0.4258,-0.94668 0.7408,-2.00967 0.8437,-3.125 z m -2.9687,28.56247 3.4375,0 a 2.000005,2.000005 0 0 0 0.7812,0 l 7.1563,0 0,5.8125 -11.375,-5.8125 z m -3.7813,2.5625 15.1563,7.78131 0,5.9063 -15.1563,-7.9688 0,-5.71881 z m 0,10.25001 15.1563,7.9688 0,6.625 -15.1563,-7.9687 0,-6.6251 z m 0,11.1251 15.1563,7.9687 0,6.8438 -15.1563,-7.9688 0,-6.8437 z m 0,11.375 15.1563,7.9687 0,6.1875 -15.1563,-7.7187 0,-6.4375 z m 0,10.9375 7.75,3.9375 -7.75,0 0,-3.9375 z" fill="#000000" fill-opacity="1" fill-rule="evenodd" stroke="none" marker="none" visibility="visible" display="inline" overflow="visible"/></g><text x="0" y="115" fill="#000000" font-size="5px" font-weight="bold" font-family="'Helvetica Neue', Helvetica, Arial-Unicode, Arial, Sans-serif">Created by andriwidodo</text><text x="0" y="120" fill="#000000" font-size="5px" font-weight="bold" font-family="'Helvetica Neue', Helvetica, Arial-Unicode, Arial, Sans-serif">from the Noun Project</text></svg>