<svg xmlns="http://www.w3.org/2000/svg" data-name="Layer 1" viewBox="0 0 128 160" x="0px" y="0px"><title>human features final</title><path d="M54,27.5A19.02781,19.02781,0,0,0,20.47656,15.20166a2.00005,2.00005,0,0,0,3.04688,2.5918A15.01283,15.01283,0,1,1,34.97754,42.5a2.0001,2.0001,0,0,0-2,2v7a2,2,0,0,0,4,0V46.39551A19.0351,19.0351,0,0,0,54,27.5Z"/><path d="M35,57a2.0001,2.0001,0,0,0-2,2v4a2,2,0,0,0,4,0V59A2.0001,2.0001,0,0,0,35,57Z"/><path d="M36,72a36.17257,36.17257,0,0,0,6.38055-.5752,45.67794,45.67794,0,0,1,1.76855-4.47992A32.00043,32.00043,0,1,1,66.94489,44.14911a45.67794,45.67794,0,0,1,4.47992-1.76855A35.99714,35.99714,0,1,0,36,72Z"/><path d="M86,44a42,42,0,1,0,42,42A42.04749,42.04749,0,0,0,86,44Zm0,80a38,38,0,1,1,38-38A38.04323,38.04323,0,0,1,86,124Z"/><path d="M86,52.5c-.52942,0-1.06726.01776-1.59845.05292-11.65417.77063-21.05042,10.29266-21.39148,21.67786a21.5817,21.5817,0,0,0,2.05151,9.93146,35.30915,35.30915,0,0,0,3.53668,6.26257,25.51906,25.51906,0,0,1,3.00659,5.40863,20.30491,20.30491,0,0,1,.87549,5.42493A5.4737,5.4737,0,0,0,71,105v1a5.49059,5.49059,0,0,0,2.02014,4.25494C73.015,110.3371,73,110.41644,73,110.5v2a6.0068,6.0068,0,0,0,6,6H93a6.0068,6.0068,0,0,0,6-6v-2c0-.08356-.015-.1629-.02014-.24506A5.49059,5.49059,0,0,0,101,106v-1a5.47575,5.47575,0,0,0-1.52216-3.7876c-.00623-.77521.003-1.44659.01263-2.05383l.00928-.6499c.01715-1.54059,1.75952-5.72443,5.54474-11.2699a21.98551,21.98551,0,0,0,3.92694-11.21661Q108.99991,75.4646,109,74.9C109,62.54858,98.68225,52.5,86,52.5Zm9,60a2,2,0,0,1-2,2H79a2,2,0,0,1-2-2v-1H95Zm2-6.5a1.5,1.5,0,0,1-1.5,1.5h-19A1.5,1.5,0,0,1,75,106v-1a1.5,1.5,0,0,1,1.5-1.5h19A1.5,1.5,0,0,1,97,105Zm7.97662-30.18164a17.97819,17.97819,0,0,1-3.2359,9.16534C99.70026,87.97314,95.543,94.59174,95.5,98.46423c-.00348.313-.00909.66315-.0141,1.03577H76.5c-.04272,0-.084.00543-.12653.00641a21.9805,21.9805,0,0,0-.9881-4.97974c-1.501-4.34241-4.978-7.728-6.65637-11.96613a17.71914,17.71914,0,0,1-1.72076-8.21c.28064-9.36749,8.00256-17.16791,17.65717-17.80634Q85.338,56.49969,86,56.5c10.49384,0,19,8.23743,19,18.4Q105,75.36185,104.97662,75.81836Z"/><path d="M86,63A13.01474,13.01474,0,0,0,73,76a2,2,0,0,0,4,0,9.01015,9.01015,0,0,1,9-9,2,2,0,0,0,0-4Z"/><text x="0" y="143" fill="#000000" font-size="5px" font-weight="bold" font-family="'Helvetica Neue', Helvetica, Arial-Unicode, Arial, Sans-serif">Created by priyanka</text><text x="0" y="148" fill="#000000" font-size="5px" font-weight="bold" font-family="'Helvetica Neue', Helvetica, Arial-Unicode, Arial, Sans-serif">from the Noun Project</text></svg>